<svg width="109" height="109" viewBox="0 0 109 109" fill="none" xmlns="http://www.w3.org/2000/svg">
<path fill-rule="evenodd" clip-rule="evenodd" d="M68.1188 7.22344L66.2515 2.01237C66.0738 1.51636 65.6488 1.14997 65.1321 1.04717C64.6153 0.944382 64.0825 1.12026 63.7285 1.5105L60.0022 5.618C59.5501 5.56767 59.0961 5.52347 58.6403 5.48549L55.786 0.728256C55.5149 0.276448 55.0267 0 54.4998 0C53.9729 0 53.4846 0.276448 53.2135 0.728256L50.3592 5.48553C49.9034 5.52353 49.4493 5.56773 48.9972 5.61807L45.2708 1.51048C44.9168 1.12024 44.384 0.944363 43.8672 1.04715C43.3505 1.14995 42.9255 1.51634 42.7478 2.01235L40.8804 7.22368C40.4369 7.35123 39.9959 7.48485 39.5576 7.62445L35.1101 4.32914C34.6868 4.01546 34.1299 3.94691 33.6431 4.14854C33.1563 4.35017 32.811 4.79243 32.7335 5.31358L31.9182 10.7923C31.5103 11.0035 31.1057 11.2202 30.7045 11.4424L25.6949 9.07581C25.2184 8.85075 24.6589 8.89215 24.2208 9.18488C23.7827 9.47761 23.5303 9.97873 23.5559 10.505L23.8257 16.048C23.4702 16.3319 23.1187 16.6207 22.7714 16.9143L17.3866 15.5681C16.8754 15.4403 16.3347 15.59 15.9621 15.9626C15.5896 16.3352 15.4398 16.8759 15.5676 17.3871L16.9138 22.7719C16.6203 23.1193 16.3315 23.4708 16.0475 23.8263L10.5051 23.5566C9.97884 23.5309 9.47772 23.7833 9.185 24.2214C8.89227 24.6595 8.85087 25.2191 9.07592 25.6955L11.4423 30.7047C11.2201 31.106 11.0033 31.5108 10.792 31.9188L5.31335 32.7341C4.7922 32.8116 4.34994 33.1569 4.14831 33.6437C3.94668 34.1305 4.01523 34.6874 4.32891 35.1107L7.62428 39.5583C7.48472 39.9965 7.35114 40.4373 7.22363 40.8808L2.01231 42.7481C1.5163 42.9258 1.14991 43.3508 1.04711 43.8676C0.944321 44.3843 1.1202 44.9171 1.51044 45.2712L5.61808 48.9975C5.56776 49.4497 5.52356 49.9036 5.48557 50.3594L0.728256 53.2138C0.276448 53.4848 0 53.9731 0 54.5C0 55.0269 0.276448 55.5152 0.728256 55.7862L5.48558 58.6406C5.52356 59.0964 5.56776 59.5503 5.61809 60.0025L1.51048 63.7288C1.12024 64.0828 0.944363 64.6156 1.04715 65.1324C1.14995 65.6492 1.51634 66.0741 2.01235 66.2519L7.22363 68.1192C7.35114 68.5626 7.48472 69.0035 7.62427 69.4416L4.3289 73.8892C4.01522 74.3126 3.94666 74.8694 4.1483 75.3562C4.34993 75.843 4.79218 76.1883 5.31334 76.2659L10.792 77.0811C11.0032 77.489 11.2199 77.8936 11.4421 78.2947L9.07544 83.3045C8.85038 83.7809 8.89179 84.3405 9.18451 84.7785C9.47724 85.2166 9.97836 85.469 10.5046 85.4434L16.0475 85.1737C16.3316 85.5293 16.6205 85.8809 16.9141 86.2284L15.568 91.6128C15.4402 92.124 15.59 92.6647 15.9626 93.0373C16.3351 93.4098 16.8759 93.5596 17.387 93.4318L22.7714 92.0857C23.1188 92.3793 23.4704 92.6682 23.826 92.9522L23.5562 98.4949C23.5306 99.0212 23.783 99.5223 24.2211 99.8151C24.6592 100.108 25.2188 100.149 25.6952 99.9241L30.7047 97.5576C31.106 97.7798 31.5106 97.9966 31.9187 98.2078L32.7339 103.686C32.8114 104.207 33.1567 104.65 33.6435 104.851C34.1303 105.053 34.6872 104.984 35.1105 104.671L39.5579 101.376C39.9962 101.515 40.4372 101.649 40.8807 101.776L42.7481 106.988C42.9258 107.484 43.3507 107.85 43.8675 107.953C44.3843 108.056 44.9171 107.88 45.2711 107.489L48.9974 103.382C49.4495 103.432 49.9035 103.476 50.3592 103.514L53.2136 108.272C53.4847 108.723 53.9729 109 54.4998 109C55.0267 109 55.515 108.723 55.7861 108.272L58.6404 103.514C59.0961 103.476 59.55 103.432 60.0021 103.382L63.7283 107.489C64.0823 107.88 64.6151 108.056 65.1319 107.953C65.6486 107.85 66.0736 107.484 66.2513 106.988L68.1185 101.777C68.5622 101.649 69.0033 101.515 69.4418 101.376L73.889 104.671C74.3123 104.984 74.8692 105.053 75.356 104.851C75.8428 104.65 76.1881 104.208 76.2656 103.686L77.0808 98.2081C77.4889 97.9969 77.8937 97.7801 78.2951 97.5578L83.3042 99.9241C83.7806 100.149 84.3402 100.108 84.7783 99.8151C85.2164 99.5223 85.4688 99.0212 85.4432 98.4949L85.1734 92.9527C85.5292 92.6685 85.8809 92.3795 86.2285 92.0858L91.6125 93.4318C92.1237 93.5596 92.6644 93.4098 93.037 93.0373C93.4095 92.6647 93.5593 92.124 93.4315 91.6128L92.0855 86.2289C92.3793 85.8813 92.6683 85.5295 92.9525 85.1737L98.4945 85.4434C99.0207 85.469 99.5219 85.2166 99.8146 84.7785C100.107 84.3404 100.149 83.7809 99.9237 83.3045L97.5575 78.2957C97.7798 77.8942 97.9967 77.4893 98.2081 77.0811L103.686 76.2659C104.207 76.1883 104.65 75.843 104.851 75.3562C105.053 74.8694 104.984 74.3126 104.671 73.8892L101.376 69.4421C101.515 69.0037 101.649 68.5626 101.776 68.119L106.987 66.2518C107.483 66.0741 107.85 65.6492 107.952 65.1324C108.055 64.6156 107.879 64.0828 107.489 63.7288L103.382 60.0028C103.432 59.5504 103.477 59.0962 103.515 58.6403L108.271 55.7862C108.723 55.5151 109 55.0268 109 54.4999C109 53.973 108.723 53.4848 108.271 53.2137L103.515 50.3596C103.477 49.9036 103.432 49.4494 103.382 48.9971L107.489 45.2711C107.879 44.9171 108.055 44.3843 107.952 43.8675C107.85 43.3508 107.483 42.9258 106.987 42.7481L101.776 40.881C101.649 40.4372 101.515 39.9959 101.375 39.5574L104.67 35.1107C104.984 34.6874 105.052 34.1305 104.851 33.6437C104.649 33.1569 104.207 32.8116 103.686 32.7341L98.2081 31.919C97.9967 31.5107 97.7798 31.1058 97.5575 30.7043L99.9236 25.6955C100.149 25.2191 100.107 24.6595 99.8146 24.2214C99.5219 23.7833 99.0207 23.5309 98.4945 23.5565L92.9525 23.8262C92.6683 23.4705 92.3793 23.1187 92.0856 22.7711L93.4316 17.3871C93.5594 16.8759 93.4096 16.3352 93.037 15.9626C92.6645 15.5901 92.1237 15.4403 91.6126 15.5681L86.2285 16.9141C85.8808 16.6203 85.529 16.3312 85.1731 16.047L85.4428 10.505C85.4685 9.97872 85.2161 9.4776 84.778 9.18487C84.3399 8.89215 83.7803 8.85074 83.3039 9.0758L78.2949 11.4421C77.8936 11.2198 77.4889 11.0031 77.0809 10.7918L76.2657 5.31354C76.1881 4.79238 75.8428 4.35013 75.3561 4.14849C74.8693 3.94686 74.3124 4.01542 73.889 4.32909L69.4418 7.62424C69.0034 7.48463 68.5624 7.351 68.1188 7.22344ZM19.2039 35.2715L22.5804 41.8982C23.3326 43.3745 22.7456 45.181 21.2694 45.9332L14.6461 49.3079C14.4268 51.0076 14.3138 52.7406 14.3138 54.5C14.3138 65.2001 18.4957 74.9235 25.3143 82.1249L32.6514 80.9629C34.2879 80.7037 35.8246 81.8202 36.0838 83.4566L37.2476 90.8049C42.4751 93.2934 48.3249 94.6862 54.5 94.6862C60.6751 94.6862 66.5248 93.2935 71.7523 90.8049L72.9161 83.4566C73.1753 81.8202 74.7121 80.7037 76.3485 80.9629L83.6857 82.125C90.5043 74.9236 94.6863 65.2001 94.6863 54.5C94.6863 52.7408 94.5733 51.008 94.3541 49.3085L87.7297 45.9332C86.2534 45.181 85.6664 43.3745 86.4186 41.8982L89.7956 35.2705C84.1069 24.8511 73.9388 17.2281 61.8797 14.9898L56.6208 20.2487C55.4492 21.4203 53.5497 21.4203 52.3782 20.2487L47.1194 14.99C35.0603 17.2285 24.8924 24.8518 19.2039 35.2715Z" fill="black"/>
<path d="M58.5 61.4999C60.0282 64.0303 64.0047 66.0837 67.5211 66.0837C70.4752 66.0837 72.3623 64.5865 72.3623 62.5178C72.3623 60.0387 70.4234 59.1607 67.1719 57.7184L65.3896 56.943C60.245 54.7204 56.8272 51.936 56.8272 46.0498C56.8272 40.6276 60.9013 36.4999 67.2682 36.4999C70.1529 36.4999 72.6998 37.5124 74.4284 39.5374C77.0612 40.2756 78.6165 42.9972 77.9069 45.6455L77.272 48.015L79.4114 51.7206L78.2256 51.4029L77.9079 52.5887L75.7685 48.8832L73.3988 48.2483C71.1597 47.6483 69.6847 45.6199 69.6917 43.4063C68.9969 42.9902 68.2096 42.805 67.2682 42.805C65.18 42.805 63.8566 44.1484 63.8566 45.9032C63.8566 48.0721 65.1813 48.9502 68.2401 50.2935L70.0224 51.0677C76.0799 53.7019 79.5 56.3873 79.5 62.425C79.5 68.934 74.4577 72.4999 67.6861 72.4999C61.0651 72.4999 56.9086 66.5998 58.5 61.4999Z" fill="black"/>
<path d="M35.3034 62.3199C36.4233 64.3349 37.4421 66.0385 39.8916 66.0385C42.2339 66.0385 43.7116 65.1092 43.7116 61.4956V36.9127H50.8408V61.5933C50.8408 69.0793 46.5127 72.4865 40.1951 72.4865C34.4869 72.4865 31.1812 69.4909 29.5 65.8828L35.3034 62.3199Z" fill="black"/>
</svg>
