<svg width="109" height="109" viewBox="0 0 109 109" fill="none" xmlns="http://www.w3.org/2000/svg">
<path fill-rule="evenodd" clip-rule="evenodd" d="M68.1188 7.2235L66.2515 2.01243C66.0738 1.51642 65.6488 1.15003 65.1321 1.04724C64.6153 0.944443 64.0825 1.12032 63.7285 1.51057L60.0022 5.61806C59.5501 5.56773 59.0961 5.52353 58.6403 5.48555L55.786 0.728317C55.5149 0.276509 55.0267 6.10352e-05 54.4998 6.10352e-05C53.9729 6.10352e-05 53.4846 0.276509 53.2135 0.728317L50.3592 5.48559C49.9034 5.52359 49.4493 5.56779 48.9972 5.61813L45.2708 1.51055C44.9168 1.12031 44.384 0.944424 43.8672 1.04722C43.3505 1.15001 42.9255 1.5164 42.7478 2.01241L40.8804 7.22374C40.4369 7.35129 39.9959 7.48491 39.5576 7.62451L35.1101 4.3292C34.6868 4.01552 34.1299 3.94697 33.6431 4.1486C33.1563 4.35024 32.811 4.79249 32.7335 5.31364L31.9182 10.7924C31.5103 11.0036 31.1057 11.2203 30.7045 11.4425L25.6949 9.07587C25.2184 8.85081 24.6589 8.89221 24.2208 9.18494C23.7827 9.47767 23.5303 9.97879 23.5559 10.5051L23.8257 16.048C23.4702 16.332 23.1187 16.6208 22.7714 16.9143L17.3866 15.5681C16.8754 15.4403 16.3347 15.5901 15.9621 15.9627C15.5896 16.3352 15.4398 16.876 15.5676 17.3871L16.9138 22.772C16.6203 23.1193 16.3315 23.4708 16.0475 23.8263L10.5051 23.5566C9.97884 23.531 9.47772 23.7834 9.185 24.2215C8.89227 24.6596 8.85087 25.2191 9.07592 25.6956L11.4423 30.7048C11.2201 31.1061 11.0033 31.5108 10.792 31.9189L5.31335 32.7341C4.7922 32.8117 4.34994 33.157 4.14831 33.6438C3.94668 34.1306 4.01523 34.6874 4.32891 35.1108L7.62428 39.5583C7.48472 39.9965 7.35114 40.4374 7.22363 40.8808L2.01231 42.7482C1.5163 42.9259 1.14991 43.3509 1.04711 43.8676C0.944321 44.3844 1.1202 44.9172 1.51044 45.2712L5.61808 48.9976C5.56776 49.4497 5.52356 49.9037 5.48557 50.3594L0.728256 53.2138C0.276448 53.4849 0 53.9732 0 54.5001C0 55.027 0.276448 55.5152 0.728256 55.7863L5.48558 58.6407C5.52356 59.0964 5.56776 59.5504 5.61809 60.0025L1.51048 63.7289C1.12024 64.0829 0.944363 64.6157 1.04715 65.1325C1.14995 65.6492 1.51634 66.0742 2.01235 66.2519L7.22363 68.1192C7.35114 68.5627 7.48472 69.0035 7.62427 69.4417L4.3289 73.8893C4.01522 74.3126 3.94666 74.8695 4.1483 75.3563C4.34993 75.8431 4.79218 76.1884 5.31334 76.2659L10.792 77.0812C11.0032 77.4891 11.2199 77.8937 11.4421 78.2948L9.07544 83.3045C8.85038 83.781 8.89179 84.3405 9.18451 84.7786C9.47724 85.2167 9.97836 85.4691 10.5046 85.4435L16.0475 85.1737C16.3316 85.5294 16.6205 85.881 16.9141 86.2285L15.568 91.6129C15.4402 92.124 15.59 92.6647 15.9626 93.0373C16.3351 93.4099 16.8759 93.5597 17.387 93.4319L22.7714 92.0858C23.1188 92.3794 23.4704 92.6682 23.826 92.9523L23.5562 98.495C23.5306 99.0213 23.783 99.5224 24.2211 99.8151C24.6592 100.108 25.2188 100.149 25.6952 99.9242L30.7047 97.5577C31.106 97.7799 31.5106 97.9967 31.9187 98.2079L32.7339 103.686C32.8114 104.208 33.1567 104.65 33.6435 104.851C34.1303 105.053 34.6872 104.985 35.1105 104.671L39.5579 101.376C39.9962 101.515 40.4372 101.649 40.8807 101.776L42.7481 106.988C42.9258 107.484 43.3507 107.85 43.8675 107.953C44.3843 108.056 44.9171 107.88 45.2711 107.49L48.9974 103.382C49.4495 103.432 49.9035 103.476 50.3592 103.514L53.2136 108.272C53.4847 108.724 53.9729 109 54.4998 109C55.0267 109 55.515 108.724 55.7861 108.272L58.6404 103.514C59.0961 103.477 59.55 103.432 60.0021 103.382L63.7283 107.489C64.0823 107.88 64.6151 108.056 65.1319 107.953C65.6486 107.85 66.0736 107.484 66.2513 106.988L68.1185 101.777C68.5622 101.649 69.0033 101.515 69.4418 101.376L73.889 104.671C74.3123 104.985 74.8692 105.053 75.356 104.851C75.8428 104.65 76.1881 104.208 76.2656 103.686L77.0808 98.2082C77.4889 97.9969 77.8937 97.7801 78.2951 97.5578L83.3042 99.9242C83.7806 100.149 84.3402 100.108 84.7783 99.8151C85.2164 99.5224 85.4688 99.0213 85.4432 98.495L85.1734 92.9528C85.5292 92.6686 85.8809 92.3796 86.2285 92.0859L91.6125 93.4319C92.1237 93.5597 92.6644 93.4099 93.037 93.0373C93.4095 92.6648 93.5593 92.124 93.4315 91.6129L92.0855 86.229C92.3793 85.8813 92.6683 85.5295 92.9525 85.1737L98.4945 85.4435C99.0207 85.4691 99.5219 85.2167 99.8146 84.7786C100.107 84.3405 100.149 83.7809 99.9237 83.3045L97.5575 78.2957C97.7798 77.8943 97.9967 77.4894 98.2081 77.0811L103.686 76.2659C104.207 76.1884 104.65 75.8431 104.851 75.3563C105.053 74.8695 104.984 74.3126 104.671 73.8893L101.376 69.4422C101.515 69.0038 101.649 68.5627 101.776 68.119L106.987 66.2519C107.483 66.0742 107.85 65.6492 107.952 65.1324C108.055 64.6157 107.879 64.0829 107.489 63.7288L103.382 60.0029C103.432 59.5505 103.477 59.0963 103.515 58.6403L108.271 55.7862C108.723 55.5152 109 55.0269 109 54.5C109 53.9731 108.723 53.4849 108.271 53.2138L103.515 50.3597C103.477 49.9037 103.432 49.4495 103.382 48.9971L107.489 45.2712C107.879 44.9172 108.055 44.3844 107.952 43.8676C107.85 43.3508 107.483 42.9259 106.987 42.7482L101.776 40.881C101.649 40.4372 101.515 39.996 101.375 39.5574L104.67 35.1108C104.984 34.6875 105.052 34.1306 104.851 33.6438C104.649 33.157 104.207 32.8117 103.686 32.7341L98.2081 31.919C97.9967 31.5108 97.7798 31.1058 97.5575 30.7043L99.9236 25.6955C100.149 25.2191 100.107 24.6596 99.8146 24.2215C99.5219 23.7834 99.0207 23.531 98.4945 23.5566L92.9525 23.8263C92.6683 23.4705 92.3793 23.1188 92.0856 22.7712L93.4316 17.3871C93.5594 16.876 93.4096 16.3353 93.037 15.9627C92.6645 15.5901 92.1237 15.4403 91.6126 15.5681L86.2285 16.9141C85.8808 16.6203 85.529 16.3313 85.1731 16.047L85.4428 10.5051C85.4685 9.97878 85.2161 9.47766 84.778 9.18494C84.3399 8.89221 83.7803 8.8508 83.3039 9.07586L78.2949 11.4421C77.8936 11.2199 77.4889 11.0031 77.0809 10.7919L76.2657 5.3136C76.1881 4.79244 75.8428 4.35019 75.3561 4.14855C74.8693 3.94692 74.3124 4.01548 73.889 4.32915L69.4418 7.6243C69.0034 7.48469 68.5624 7.35106 68.1188 7.2235ZM19.2039 35.2716L22.5804 41.8983C23.3326 43.3745 22.7456 45.1811 21.2694 45.9333L14.6461 49.308C14.4268 51.0077 14.3138 52.7407 14.3138 54.5C14.3138 65.2002 18.4957 74.9236 25.3143 82.125L32.6514 80.9629C34.2879 80.7037 35.8246 81.8202 36.0838 83.4567L37.2476 90.8049C42.4751 93.2935 48.3249 94.6863 54.5 94.6863C60.6751 94.6863 66.5248 93.2935 71.7523 90.805L72.9161 83.4567C73.1753 81.8203 74.7121 80.7038 76.3485 80.9629L83.6857 82.125C90.5043 74.9236 94.6863 65.2002 94.6863 54.5C94.6863 52.7408 94.5733 51.0081 94.3541 49.3085L87.7297 45.9333C86.2534 45.1811 85.6664 43.3745 86.4186 41.8983L89.7956 35.2706C84.1069 24.8511 73.9388 17.2281 61.8797 14.9899L56.6208 20.2488C55.4492 21.4203 53.5497 21.4203 52.3782 20.2488L47.1194 14.99C35.0603 17.2286 24.8924 24.8519 19.2039 35.2716Z" fill="#F3FF00"/>
<path d="M58.5 61.5C60.0282 64.0303 64.0047 66.0838 67.5211 66.0838C70.4752 66.0838 72.3623 64.5866 72.3623 62.5178C72.3623 60.0388 70.4234 59.1607 67.1719 57.7185L65.3896 56.943C60.245 54.7204 56.8272 51.9361 56.8272 46.0498C56.8272 40.6277 60.9013 36.5 67.2682 36.5C70.1529 36.5 72.6998 37.5125 74.4284 39.5374C77.0612 40.2757 78.6165 42.9973 77.9069 45.6456L77.272 48.0151L79.4114 51.7207L78.2256 51.403L77.9079 52.5888L75.7685 48.8833L73.3988 48.2483C71.1597 47.6484 69.6847 45.62 69.6917 43.4063C68.9969 42.9902 68.2096 42.8051 67.2682 42.8051C65.18 42.8051 63.8566 44.1484 63.8566 45.9033C63.8566 48.0722 65.1813 48.9502 68.2401 50.2935L70.0224 51.0678C76.0799 53.7019 79.5 56.3874 79.5 62.425C79.5 68.9341 74.4577 72.5 67.6861 72.5C61.0651 72.5 56.9086 66.5998 58.5 61.5Z" fill="#F3FF00"/>
<path d="M35.3034 62.32C36.4233 64.335 37.4421 66.0386 39.8916 66.0386C42.2339 66.0386 43.7116 65.1092 43.7116 61.4957V36.9128H50.8408V61.5934C50.8408 69.0794 46.5127 72.4866 40.1951 72.4866C34.4869 72.4866 31.1812 69.4909 29.5 65.8829L35.3034 62.32Z" fill="#F3FF00"/>
</svg>
